<svg width="58" height="16" viewBox="0 0 58 16" fill="none" xmlns="http://www.w3.org/2000/svg">
<path d="M0.559531 15V0.4H5.03953C6.45286 0.4 7.57286 0.74 8.39953 1.42C9.2262 2.08667 9.63953 3 9.63953 4.16C9.63953 4.81333 9.49286 5.38 9.19953 5.86C8.9062 6.34 8.5062 6.71333 7.99953 6.98C7.5062 7.24667 6.93287 7.38 6.27953 7.38V7.3C6.9862 7.28667 7.61286 7.42 8.15953 7.7C8.71953 7.96667 9.15953 8.36667 9.47953 8.9C9.81287 9.43333 9.97953 10.08 9.97953 10.84C9.97953 11.68 9.7862 12.4133 9.39953 13.04C9.01287 13.6667 8.4662 14.1533 7.75953 14.5C7.0662 14.8333 6.23286 15 5.25953 15H0.559531ZM2.99953 12.92H5.09953C5.83287 12.92 6.4062 12.7267 6.81953 12.34C7.2462 11.94 7.45953 11.4 7.45953 10.72C7.45953 10.04 7.2462 9.49333 6.81953 9.08C6.4062 8.65333 5.83287 8.44 5.09953 8.44H2.99953V12.92ZM2.99953 6.42H4.99953C5.6662 6.42 6.1862 6.24667 6.55953 5.9C6.9462 5.54 7.13953 5.05333 7.13953 4.44C7.13953 3.82667 6.9462 3.34667 6.55953 3C6.1862 2.65333 5.6662 2.48 4.99953 2.48H2.99953V6.42ZM17.0117 15.18C16.0784 15.18 15.2651 15.0067 14.5717 14.66C13.8917 14.3 13.3584 13.8 12.9717 13.16C12.5984 12.5067 12.4117 11.74 12.4117 10.86V8.14C12.4117 7.26 12.5984 6.5 12.9717 5.86C13.3584 5.20667 13.8917 4.70667 14.5717 4.36C15.2651 4 16.0784 3.82 17.0117 3.82C17.9584 3.82 18.7717 4 19.4517 4.36C20.1317 4.70667 20.6584 5.20667 21.0317 5.86C21.4184 6.5 21.6117 7.25333 21.6117 8.12V10.86C21.6117 11.74 21.4184 12.5067 21.0317 13.16C20.6584 13.8 20.1317 14.3 19.4517 14.66C18.7717 15.0067 17.9584 15.18 17.0117 15.18ZM17.0117 13C17.6784 13 18.1917 12.82 18.5517 12.46C18.9251 12.0867 19.1117 11.5533 19.1117 10.86V8.14C19.1117 7.43333 18.9251 6.9 18.5517 6.54C18.1917 6.18 17.6784 6 17.0117 6C16.3584 6 15.8451 6.18 15.4717 6.54C15.0984 6.9 14.9117 7.43333 14.9117 8.14V10.86C14.9117 11.5533 15.0984 12.0867 15.4717 12.46C15.8451 12.82 16.3584 13 17.0117 13ZM29.0039 15.18C28.0706 15.18 27.2572 15.0067 26.5639 14.66C25.8839 14.3 25.3506 13.8 24.9639 13.16C24.5906 12.5067 24.4039 11.74 24.4039 10.86V8.14C24.4039 7.26 24.5906 6.5 24.9639 5.86C25.3506 5.20667 25.8839 4.70667 26.5639 4.36C27.2572 4 28.0706 3.82 29.0039 3.82C29.9506 3.82 30.7639 4 31.4439 4.36C32.1239 4.70667 32.6506 5.20667 33.0239 5.86C33.4106 6.5 33.6039 7.25333 33.6039 8.12V10.86C33.6039 11.74 33.4106 12.5067 33.0239 13.16C32.6506 13.8 32.1239 14.3 31.4439 14.66C30.7639 15.0067 29.9506 15.18 29.0039 15.18ZM29.0039 13C29.6706 13 30.1839 12.82 30.5439 12.46C30.9172 12.0867 31.1039 11.5533 31.1039 10.86V8.14C31.1039 7.43333 30.9172 6.9 30.5439 6.54C30.1839 6.18 29.6706 6 29.0039 6C28.3506 6 27.8372 6.18 27.4639 6.54C27.0906 6.9 26.9039 7.43333 26.9039 8.14V10.86C26.9039 11.5533 27.0906 12.0867 27.4639 12.46C27.8372 12.82 28.3506 13 29.0039 13ZM36.5961 15V0.4H39.0961V8.32H40.8361L43.5161 4H46.3161L42.9961 9.32L46.3761 15H43.5161L40.8361 10.44H39.0961V15H36.5961ZM52.9883 15.18C52.0549 15.18 51.2416 15.0067 50.5483 14.66C49.8683 14.3 49.3349 13.8 48.9483 13.16C48.5749 12.5067 48.3883 11.74 48.3883 10.86V8.14C48.3883 7.26 48.5749 6.5 48.9483 5.86C49.3349 5.20667 49.8683 4.70667 50.5483 4.36C51.2416 4 52.0549 3.82 52.9883 3.82C53.9349 3.82 54.7483 4 55.4283 4.36C56.1083 4.70667 56.6349 5.20667 57.0083 5.86C57.3949 6.5 57.5883 7.25333 57.5883 8.12V10.86C57.5883 11.74 57.3949 12.5067 57.0083 13.16C56.6349 13.8 56.1083 14.3 55.4283 14.66C54.7483 15.0067 53.9349 15.18 52.9883 15.18ZM52.9883 13C53.6549 13 54.1683 12.82 54.5283 12.46C54.9016 12.0867 55.0883 11.5533 55.0883 10.86V8.14C55.0883 7.43333 54.9016 6.9 54.5283 6.54C54.1683 6.18 53.6549 6 52.9883 6C52.3349 6 51.8216 6.18 51.4483 6.54C51.0749 6.9 50.8883 7.43333 50.8883 8.14V10.86C50.8883 11.5533 51.0749 12.0867 51.4483 12.46C51.8216 12.82 52.3349 13 52.9883 13Z" fill="black"/>
</svg>
